<?xml version="1.0" standalone="no"?><!DOCTYPE svg PUBLIC "-//W3C//DTD SVG 1.1//EN" "http://www.w3.org/Graphics/SVG/1.1/DTD/svg11.dtd"><svg t="1566196194797" class="icon" viewBox="0 0 1024 1024" version="1.1" xmlns="http://www.w3.org/2000/svg" p-id="4728" xmlns:xlink="http://www.w3.org/1999/xlink" width="200" height="200"><defs><style type="text/css"></style></defs><path d="M188.783109 194.563254C256.76441 126.57172 344.458681 82.461083 441.342242 68.546166c118.413923-17.022699 236.411361 13.171997 332.180542 84.883249 95.788623 71.765487 157.907403 176.526459 174.928055 294.939359 35.116799 244.617254-135.326105 472.080825-379.789862 507.219113-102.507652 14.703887-207.618595-6.782473-295.991318-60.432371-15.09786-9.188266-19.911492-28.881794-10.743692-43.979654 9.254781-14.96483 28.860305-19.909445 43.97863-10.721179 75.68168 45.991474 165.783791 64.370053 253.67556 51.768037 209.499431-30.062689 355.569228-225.055732 325.505515-434.753685-14.57188-101.522208-67.826781-191.273325-149.941987-252.756631C653.052015 143.200446 551.92378 117.381407 450.422038 131.99729c-209.717396 30.052456-355.744213 225.089501-325.616032 434.697403 7.898901 54.875818 26.934442 106.161878 56.71163 152.37234 9.540284 14.921851 5.186116 34.788318-9.583263 44.240597-14.855336 9.582239-34.678824 5.294586-44.240597-9.53926-34.745339-54.087872-56.997132-113.907283-66.251913-177.970344-17.000186-118.414947 13.149485-236.479923 84.959997-332.268546C159.442874 226.070852 173.620781 209.704093 188.783109 194.563254L188.783109 194.563254 188.783109 194.563254z" p-id="4729" fill="#616161"></path><path d="M461.471698 390.299217" p-id="4730" fill="#616161"></path><path d="M332.710103 697.66356 332.710103 356.330568l-53.54245 0c-13.385868 0-20.078291-7.42511-20.078291-22.309098 0-11.886725 6.693446-18.579147 20.078291-20.078291l89.237417 0c10.387581 0 15.616676 4.461615 15.616676 13.385868l0 370.335537c-1.499144 14.883989-10.422374 22.309098-26.771737 22.309098C340.866876 719.971635 332.710103 712.547549 332.710103 697.66356z" p-id="4731" fill="#616161"></path><path d="M569.189002 356.330568l-15.615653 111.546515c14.848173-7.42511 32.695656-11.886725 53.541427-13.385868 62.46568 7.459902 97.394191 49.079812 104.85307 124.932384-4.460592 92.235704-49.078789 139.084709-133.855614 140.54906-62.46568-1.464351-100.391455-23.041786-113.777323-64.697511 0-11.886725 5.925966-18.579147 17.847483-20.078291 4.461615 0 12.618389 5.228071 24.539906 15.616676 23.77345 17.847483 48.312332 26.771737 73.619718 26.771737 47.581692-2.963495 73.621764-32.697703 78.083379-89.237417-2.998287-55.006801-26.771737-84.009346-71.389934-87.00661-16.383132 0-34.230616 3.729951-53.541427 11.154038-7.460925 2.997264-12.653181 4.462638-15.617699 4.462638-11.921517 0-17.847483-5.194302-17.847483-15.616676 0-4.461615 1.465374-15.616676 4.462638-33.464159l22.308075-140.54906c-1.499144-8.924253 4.460592-13.385868 17.847483-13.385868l140.54906 0c13.384845 1.499144 20.809955 8.191566 22.309098 20.078291-1.499144 14.883989-8.924253 22.309098-22.309098 22.309098L569.189002 356.329545z" p-id="4732" fill="#616161"></path></svg>