<?xml version="1.0" standalone="no"?><!DOCTYPE svg PUBLIC "-//W3C//DTD SVG 1.1//EN" "http://www.w3.org/Graphics/SVG/1.1/DTD/svg11.dtd"><svg t="1566196244642" class="icon" viewBox="0 0 1027 1024" version="1.1" xmlns="http://www.w3.org/2000/svg" p-id="5347" xmlns:xlink="http://www.w3.org/1999/xlink" width="200.5859375" height="200"><defs><style type="text/css"></style></defs><path d="M88.756659 845.262327c0.030206-0.6887 0.070481-1.374379 0.104715-2.062071C88.7919 843.877879 88.756659 844.566579 88.756659 845.262327z" p-id="5348" fill="#616161"></path><path d="M462.42148 777.797962c13.860582 4.042586 28.369589-3.918741 32.411168-17.78033l143.447862-483.399631c0.469202-1.456942 0.811538-2.970269 1.01996-4.526891 0.009062-0.066453 0.017117-0.1319 0.024165-0.198354 0.042289-0.336295 0.079543-0.674603 0.108742-1.014926 0.013089-0.142976 0.022151-0.285951 0.03222-0.428927 0.020137-0.269841 0.036247-0.539683 0.046316-0.811538 0.008055-0.19936 0.012082-0.397714 0.01611-0.596067 0.002014-0.14801 0.011076-0.295013 0.011076-0.443023 0-0.084577-0.006041-0.168147-0.007048-0.251718-0.002014-0.207415-0.008055-0.412817-0.015103-0.619225-0.008055-0.240642-0.017117-0.482291-0.031213-0.721926-0.010069-0.162106-0.023158-0.323205-0.036247-0.484305-0.022151-0.290986-0.04833-0.581971-0.08055-0.869936-0.009062-0.082563-0.021144-0.165127-0.031213-0.246683-1.437811-11.796497-10.728207-21.161402-22.489464-22.712989-0.040275-0.005034-0.08055-0.010069-0.120824-0.015103-0.355425-0.045309-0.711858-0.08357-1.070304-0.114783-0.135928-0.012082-0.272862-0.021144-0.407783-0.031213-0.270848-0.019131-0.54069-0.03524-0.813552-0.046316-0.209429-0.008055-0.416844-0.012082-0.625267-0.01611-0.137941-0.002014-0.273869-0.010069-0.41181-0.010069L331.902845 242.457899c-14.437519 0-26.13937 11.702858-26.13937 26.140377 0 14.436512 11.702858 26.140377 26.13937 26.140377L578.36969 294.738653 444.64115 745.388808C440.600578 759.250397 448.560898 773.759404 462.42148 777.797962z" p-id="5349" fill="#616161"></path><path d="M936.486413 371.09872C887.318903 183.133077 724.93583 37.163004 520.280298 18.449305 259.159457-5.42662 28.120892 186.897766 4.24396 448.021628c-23.879952 261.120841 168.446448 492.1584 429.569303 516.037345 204.538735 18.705644 390.578235-95.271113 473.095317-271.03449 1.884862-3.209904 3.114251-6.871893 3.475718-10.82386 1.313966-14.354956-9.255156-27.047568-23.60709-28.362541-10.680884-0.975658-20.443503 4.635633-25.278496 13.485019-0.001007 0.002014-0.006041 0.002014-0.007048 0.004027-0.007048 0.01611-0.015103 0.030206-0.021144 0.046316-0.477257 0.875978-0.902156 1.785182-1.279733 2.721572-67.366698 143.999627-213.794898 243.780514-383.272381 243.780514-233.407732 0-422.621895-189.213156-422.621895-422.620888 0-233.407732 189.214163-422.621895 422.621895-422.621895 195.841386 0 360.559392 133.212015 408.511609 313.965443l-75.605921 17.029204 103.938256 76.644005c0.425906 0.343343 0.870943 0.661514 1.322021 0.974651 5.295133 3.68414 12.045194 5.240762 18.833516 3.711325 6.791343-1.529437 12.221397-5.829781 15.426266-11.426976l0.776297-1.44788 61.044557-113.804582L936.486413 371.09872z" p-id="5350" fill="#616161"></path></svg>