<?xml version="1.0" standalone="no"?><!DOCTYPE svg PUBLIC "-//W3C//DTD SVG 1.1//EN" "http://www.w3.org/Graphics/SVG/1.1/DTD/svg11.dtd"><svg t="1566195981957" class="icon" viewBox="0 0 1024 1024" version="1.1" xmlns="http://www.w3.org/2000/svg" p-id="2244" xmlns:xlink="http://www.w3.org/1999/xlink" width="200" height="200"><defs><style type="text/css"></style></defs><path d="M935.563636 472.436364h-814.545454c-34.909091 0-62.836364-27.927273-62.836364-62.836364v-93.090909c0-34.909091 27.927273-62.836364 62.836364-62.836364h814.545454c34.909091 0 62.836364 27.927273 62.836364 62.836364v93.090909c0 34.909091-27.927273 62.836364-62.836364 62.836364z m-814.545454-174.545455c-9.309091 0-16.290909 6.981818-16.290909 16.290909v93.090909c0 9.309091 6.981818 16.290909 16.290909 16.290909h814.545454c9.309091 0 16.290909-6.981818 16.290909-16.290909v-93.090909c0-9.309091-6.981818-16.290909-16.290909-16.290909h-814.545454z" p-id="2245" fill="#616161"></path><path d="M742.4 970.472727H302.545455c-100.072727 0-181.527273-81.454545-181.527273-181.527272V449.163636h46.545454v339.781819c0 74.472727 60.509091 134.981818 134.981819 134.981818h439.854545c74.472727 0 134.981818-60.509091 134.981818-134.981818V449.163636h46.545455v339.781819c0 100.072727-81.454545 181.527273-181.527273 181.527272z" p-id="2246" fill="#616161"></path><path d="M551.563636 896h-46.545454V253.672727c2.327273-4.654545 37.236364-132.654545 128-181.527272 41.890909-20.945455 86.109091-23.272727 134.981818-9.309091 2.327273 0 48.872727 16.290909 62.836364 65.163636 13.963636 44.218182-4.654545 97.745455-51.2 160.581818l-37.236364-27.927273c37.236364-48.872727 53.527273-90.763636 44.218182-118.690909-6.981818-25.6-32.581818-34.909091-32.581818-34.909091-34.909091-11.636364-67.490909-9.309091-97.745455 4.654546-67.490909 34.909091-97.745455 132.654545-104.727273 148.945454v635.345455z" p-id="2247" fill="#616161"></path><path d="M549.236364 947.2h-46.545455V262.981818c-4.654545-18.618182-37.236364-114.036364-104.727273-148.945454-30.254545-16.290909-60.509091-16.290909-97.745454-4.654546 0 0-25.6 9.309091-32.581818 34.909091-9.309091 27.927273 6.981818 69.818182 44.218181 118.690909l-37.236363 27.927273c-46.545455-62.836364-65.163636-116.363636-51.2-160.581818 13.963636-48.872727 60.509091-65.163636 62.836363-65.163637 48.872727-16.290909 93.090909-13.963636 134.981819 9.309091 90.763636 48.872727 125.672727 176.872727 128 181.527273v691.2z" p-id="2248" fill="#616161"></path></svg>