<?xml version="1.0" standalone="no"?><!DOCTYPE svg PUBLIC "-//W3C//DTD SVG 1.1//EN" "http://www.w3.org/Graphics/SVG/1.1/DTD/svg11.dtd"><svg t="1566202899101" class="icon" viewBox="0 0 1024 1024" version="1.1" xmlns="http://www.w3.org/2000/svg" p-id="2756" xmlns:xlink="http://www.w3.org/1999/xlink" width="200" height="200"><defs><style type="text/css"></style></defs><path d="M778.353778 112.981333H246.784c-46.876444 0-80.782222 35.953778-80.782222 85.560889v390.030222c0 23.438222 7.736889 43.690667 22.414222 58.254223 14.677333 14.677333 34.816 22.414222 58.368 22.414222H399.36l90.794667 88.177778c6.371556 6.371556 14.791111 9.784889 23.779555 9.784889 8.874667 0 17.408-3.527111 23.893334-9.898667l89.201777-88.064h151.324445c23.438222 0 43.690667-7.736889 58.254222-22.414222 14.677333-14.677333 22.414222-34.816 22.414222-58.254223V198.656c0-49.607111-33.905778-85.674667-80.668444-85.674667z m13.084444 475.704889c0 10.467556-2.616889 13.084444-13.084444 13.084445H612.920889c-9.102222 0-17.521778 3.527111-23.893333 9.898666l-75.320889 74.296889-76.8-74.524444c-6.599111-6.485333-15.473778-10.012444-24.576-9.671111H246.784c-10.695111 0-13.312-2.616889-13.312-13.084445V198.656c0-4.437333 0-17.976889 13.312-17.976889h531.569778c5.233778 0 8.533333 1.820444 10.581333 5.802667 2.161778 4.096 2.503111 9.443556 2.503111 12.174222v390.030222z" fill="#592B0C" p-id="2757"></path><path d="M519.850667 337.009778c-28.444444 0-51.541333 23.096889-51.541334 51.541333v11.264h1.251556c5.12 23.096889 25.713778 40.277333 50.289778 40.277333 28.444444 0 51.541333-23.096889 51.541333-51.541333s-23.210667-51.541333-51.541333-51.541333zM356.465778 337.009778c-28.444444 0-51.541333 23.096889-51.541334 51.541333s23.096889 51.541333 51.541334 51.541333 51.541333-23.096889 51.541333-51.541333-23.096889-51.541333-51.541333-51.541333z" fill="#592B0C" p-id="2758"></path><path d="M682.097778 387.982222m-51.541334 0a51.541333 51.541333 0 1 0 103.082667 0 51.541333 51.541333 0 1 0-103.082667 0Z" fill="#592B0C" p-id="2759"></path></svg>