<?xml version="1.0" standalone="no"?><!DOCTYPE svg PUBLIC "-//W3C//DTD SVG 1.1//EN" "http://www.w3.org/Graphics/SVG/1.1/DTD/svg11.dtd"><svg t="1566196442202" class="icon" viewBox="0 0 1024 1024" version="1.1" xmlns="http://www.w3.org/2000/svg" p-id="10082" xmlns:xlink="http://www.w3.org/1999/xlink" width="200" height="200"><defs><style type="text/css"></style></defs><path d="M862.72 147.2H161.28c-18.432 0-33.28-14.848-33.28-33.28s14.848-33.28 33.28-33.28h701.44c18.432 0 33.28 14.848 33.28 33.28s-14.848 33.28-33.28 33.28zM549.376 323.84v580.608c0 21.504-17.408 38.912-38.912 38.912-21.504 0-38.912-17.408-38.912-38.912V323.84c0-21.504 17.408-38.912 38.912-38.912 21.504 0 38.912 17.408 38.912 38.912z" p-id="10083" fill="#616161"></path><path d="M542.72 262.144L207.872 661.248c-13.824 16.384-38.4 18.688-54.784 4.864-16.384-13.824-18.688-38.4-4.864-54.784L483.072 212.224c13.824-16.384 38.4-18.688 54.784-4.864 16.384 13.824 18.688 38.4 4.864 54.784z" p-id="10084" fill="#616161"></path><path d="M481.28 262.144l334.848 398.848c13.824 16.384 38.4 18.688 54.784 4.864 16.384-13.824 18.688-38.4 4.864-54.784L540.928 212.224c-13.824-16.384-38.4-18.688-54.784-4.864-16.384 13.824-18.688 38.4-4.864 54.784z" p-id="10085" fill="#616161"></path></svg>