<?xml version="1.0" standalone="no"?><!DOCTYPE svg PUBLIC "-//W3C//DTD SVG 1.1//EN" "http://www.w3.org/Graphics/SVG/1.1/DTD/svg11.dtd"><svg t="1566196412848" class="icon" viewBox="0 0 1024 1024" version="1.1" xmlns="http://www.w3.org/2000/svg" p-id="9237" xmlns:xlink="http://www.w3.org/1999/xlink" width="200" height="200"><defs><style type="text/css"></style></defs><path d="M564.244898 877.714286c-11.493878 0-20.897959-9.404082-20.897959-20.897959s9.404082-20.897959 20.897959-20.89796c124.342857 0 225.697959-101.355102 225.697959-225.697959 0-11.493878 9.404082-20.897959 20.897959-20.897959s20.897959 9.404082 20.89796 20.897959c0 147.330612-120.163265 267.493878-267.493878 267.493878z" p-id="9238" fill="#616161"></path><path d="M830.693878 434.677551c-11.493878 0-20.897959-9.404082-20.89796-20.897959C809.795918 260.702041 676.04898 135.836735 512 135.836735S214.204082 260.702041 214.204082 413.779592c0 11.493878-9.404082 20.897959-20.89796 20.897959s-20.897959-9.404082-20.897959-20.897959C172.408163 237.191837 324.963265 94.040816 512 94.040816s339.591837 143.15102 339.591837 319.738776c0 11.493878-9.404082 20.897959-20.897959 20.897959z" p-id="9239" fill="#616161"></path><path d="M198.530612 631.118367h-10.448979c-51.722449 0-94.040816-42.318367-94.040817-94.040816v-50.155102c0-51.722449 42.318367-94.040816 94.040817-94.040816h10.448979c51.722449 0 94.040816 42.318367 94.040817 94.040816v50.155102c0 51.722449-42.318367 94.040816-94.040817 94.040816z m-10.448979-196.440816c-28.734694 0-52.244898 23.510204-52.244898 52.244898v50.155102c0 28.734694 23.510204 52.244898 52.244898 52.244898h10.448979c28.734694 0 52.244898-23.510204 52.244898-52.244898v-50.155102c0-28.734694-23.510204-52.244898-52.244898-52.244898h-10.448979z" p-id="9240" fill="#616161"></path><path d="M835.918367 631.118367h-10.448979c-51.722449 0-94.040816-42.318367-94.040817-94.040816v-50.155102c0-51.722449 42.318367-94.040816 94.040817-94.040816h10.448979c51.722449 0 94.040816 42.318367 94.040817 94.040816v50.155102c0 51.722449-42.318367 94.040816-94.040817 94.040816z m-10.448979-196.440816c-28.734694 0-52.244898 23.510204-52.244898 52.244898v50.155102c0 28.734694 23.510204 52.244898 52.244898 52.244898h10.448979c28.734694 0 52.244898-23.510204 52.244898-52.244898v-50.155102c0-28.734694-23.510204-52.244898-52.244898-52.244898h-10.448979z" p-id="9241" fill="#616161"></path><path d="M512 929.959184c-40.228571 0-73.142857-32.914286-73.142857-73.142857s32.914286-73.142857 73.142857-73.142858 73.142857 32.914286 73.142857 73.142858-32.914286 73.142857-73.142857 73.142857z m0-104.489796c-17.240816 0-31.346939 14.106122-31.346939 31.346939s14.106122 31.346939 31.346939 31.346938 31.346939-14.106122 31.346939-31.346938-14.106122-31.346939-31.346939-31.346939z" p-id="9242" fill="#616161"></path></svg>